<mxfile host="app.diagrams.net" modified="2024-05-09T06:09:36.875Z" agent="Mozilla/5.0 (Macintosh; Intel Mac OS X 10_15_7) AppleWebKit/537.36 (KHTML, like Gecko) Chrome/124.0.0.0 Safari/537.36" version="24.3.1" etag="WoMu6S_6BDJPxYZGN_dq" type="github">
  <diagram name="페이지-1" id="Cs3J1xDBmX6KW6K296SR">
    <mxGraphModel>
      <root>
        <mxCell id="0" />
        <mxCell id="1" parent="0" />
      </root>
    </mxGraphModel>
  </diagram>
</mxfile>
